<?xml version="1.0" standalone="no"?><!-- Generator: Gravit.io --><svg xmlns="http://www.w3.org/2000/svg" xmlns:xlink="http://www.w3.org/1999/xlink" style="isolation:isolate" viewBox="1560.7364783805833 1506.7087096561638 16.615384615384755 24" width="16.615384615384755" height="24"><path d=" M 1560.7364783805833 1506.7087096561638 L 1560.7364783805833 1507.6317865792407 C 1560.7364783805833 1508.1404019638562 1561.150939919045 1508.5548635023176 1561.6595553036602 1508.5548635023176 L 1562.5826322267371 1508.5548635023176 L 1562.5826322267371 1509.4779404253945 C 1562.5826322267371 1509.98655581001 1562.9970937651988 1510.4010173484714 1563.5057091498143 1510.4010173484714 L 1563.5922476113526 1510.4010173484714 C 1563.7592644421218 1516.0038155023176 1567.5441706882757 1517.8113450407793 1567.5441706882757 1518.7087096561638 C 1567.5441706882757 1519.5943382715484 1563.7600503498143 1521.4064684253947 1563.5922476113526 1527.0164019638562 L 1563.5057091498143 1527.0164019638562 C 1562.9970937651988 1527.0164019638562 1562.5826322267371 1527.4308635023176 1562.5826322267371 1527.939478886933 L 1562.5826322267371 1528.86255581001 L 1561.6595553036602 1528.86255581001 C 1561.150939919045 1528.86255581001 1560.7364783805833 1529.2770173484714 1560.7364783805833 1529.785632733087 L 1560.7364783805833 1530.7087096561638 L 1577.351862995968 1530.7087096561638 L 1577.351862995968 1529.785632733087 C 1577.351862995968 1529.2770173484714 1576.9374014575064 1528.86255581001 1576.4287860728912 1528.86255581001 L 1575.5057091498143 1528.86255581001 L 1575.5057091498143 1527.939478886933 C 1575.5057091498143 1527.4308635023176 1575.0912476113526 1527.0164019638562 1574.5826322267371 1527.0164019638562 L 1574.4960937651988 1527.0164019638562 C 1574.3259614575065 1521.4127785792407 1570.4864783805833 1519.6069770407792 1570.4864783805833 1518.7087096561638 C 1570.4864783805833 1517.8230810407792 1574.3260002267373 1516.0100490407792 1574.4960937651988 1510.4010173484714 L 1574.5826322267371 1510.4010173484714 C 1575.0912476113526 1510.4010173484714 1575.5057091498143 1509.98655581001 1575.5057091498143 1509.4779404253945 L 1575.5057091498143 1508.5548635023176 L 1576.4287860728912 1508.5548635023176 C 1576.9374014575064 1508.5548635023176 1577.351862995968 1508.1404019638562 1577.351862995968 1507.6317865792407 L 1577.351862995968 1506.7087096561638 L 1560.7364783805833 1506.7087096561638 Z  M 1564.5153245344295 1510.4010173484714 L 1573.573016842122 1510.4010173484714 C 1573.4503796113527 1514.0152634715485 1571.686374995968 1515.8848470407793 1570.601862995968 1517.0067865792407 C 1569.9990937651987 1517.6317096561638 1569.5634014575064 1518.0810173484715 1569.5634014575064 1518.7087096561638 C 1569.5634014575064 1519.3419404253946 1569.9944783805834 1519.8099404253946 1570.601862995968 1520.439478886933 C 1571.6845925344296 1521.561418886933 1573.4506786882757 1523.4130124253945 1573.573016842122 1527.0164019638562 L 1572.476862995968 1527.0164019638562 C 1572.4867131498142 1526.978361963856 1572.5057091498143 1526.9442173484715 1572.5057091498143 1526.9010173484714 C 1572.5057091498143 1524.9228635023176 1569.0441706882757 1523.410632733087 1569.0441706882757 1523.410632733087 C 1569.0441706882757 1523.410632733087 1565.5826322267371 1524.6138635023176 1565.5826322267371 1526.9298635023176 C 1565.5826322267371 1526.96336381001 1565.6056129651988 1526.9864185792408 1565.6114783805833 1527.0164019638562 L 1564.5153245344295 1527.0164019638562 C 1564.636337519045 1523.3987739638562 1566.3873780728911 1521.532572733087 1567.4576322267371 1520.410632733087 C 1568.053016842122 1519.786632733087 1568.4672476113526 1519.333632733087 1568.4672476113526 1518.7087096561638 C 1568.4672476113526 1518.0800942715484 1568.0557860728911 1517.635401963856 1567.4576322267371 1517.0067865792407 C 1566.3891605344295 1515.8839559023177 1564.6352667498143 1514.0069592869331 1564.5153245344295 1510.4010173484714 Z  M 1569.0441706882757 1514.0933250407793 C 1567.9503245344295 1514.0933250407793 1566.8807091498143 1514.227632733087 1566.8807091498143 1514.7279404253945 C 1566.8807091498143 1515.967632733087 1569.0441706882757 1517.2087096561638 1569.0441706882757 1517.2087096561638 C 1569.0441706882757 1517.2087096561638 1571.2076322267371 1516.1510942715483 1571.2076322267371 1514.6990942715483 C 1571.2076322267371 1514.1941711946254 1570.138016842122 1514.0933250407793 1569.0441706882757 1514.0933250407793 Z " fill-rule="evenodd" fill="rgb(102,205,170)" stroke-width="3.8461538461538463" stroke="rgba(0,0,0,0)" stroke-linejoin="miter" stroke-linecap="butt"/></svg>