<?xml version="1.0" standalone="no"?><!-- Generator: Gravit.io --><svg xmlns="http://www.w3.org/2000/svg" xmlns:xlink="http://www.w3.org/1999/xlink" style="isolation:isolate" viewBox="1557.0441706882757 1142.0491308502433 24 24" width="24" height="24"><path d=" M 1560.7364783805833 1142.0491308502433 C 1558.7010937651987 1142.0491308502433 1557.0441706882757 1143.7060539271663 1557.0441706882757 1145.741438542551 L 1557.0441706882757 1162.3568231579357 C 1557.0441706882757 1164.3922077733203 1558.7010937651987 1166.0491308502433 1560.7364783805833 1166.0491308502433 L 1572.7364783805833 1166.0491308502433 C 1573.7177091498143 1166.0491308502433 1575.0801706882758 1164.6319770040893 1576.6595553036602 1163.020284696397 C 1576.8810937651988 1162.7950539271662 1577.0940937651987 1162.5839000810124 1577.323016842122 1162.3568231579357 C 1577.5500937651989 1162.1279000810125 1577.7900937651987 1161.8860539271664 1578.0153245344295 1161.6645154656278 C 1579.6279399190448 1160.0842077733203 1581.0441706882757 1158.7226693117818 1581.0441706882757 1157.741438542551 L 1581.0441706882757 1145.741438542551 C 1581.0441706882757 1143.7060539271663 1579.3872476113527 1142.0491308502433 1577.351862995968 1142.0491308502433 L 1560.7364783805833 1142.0491308502433 Z  M 1560.7364783805833 1143.895284696397 L 1577.351862995968 1143.895284696397 C 1578.370939919045 1143.895284696397 1579.198016842122 1144.722361619474 1579.198016842122 1145.741438542551 L 1579.198016842122 1157.741438542551 C 1579.198016842122 1158.6599000810124 1578.2730937651988 1158.6645154656278 1577.351862995968 1158.6645154656278 L 1574.5826322267371 1158.6645154656278 C 1574.0740168421219 1158.6645154656278 1573.6595553036602 1159.0789770040894 1573.6595553036602 1159.5875923887047 L 1573.6595553036602 1162.4145154656278 C 1573.6595553036602 1163.233284696397 1573.6616322267373 1164.0331308502432 1572.9960937651988 1164.2029770040895 L 1560.7364783805833 1164.2029770040895 C 1559.7174014575064 1164.2029770040895 1558.8903245344295 1163.3759000810126 1558.8903245344295 1162.3568231579357 L 1558.8903245344295 1145.741438542551 C 1558.8903245344295 1144.722361619474 1559.7174014575064 1143.895284696397 1560.7364783805833 1143.895284696397 Z  M 1563.3326322267371 1149.4337462348587 C 1564.0531175067372 1149.3662007398586 1564.226194429814 1151.2123545860125 1563.5057091498143 1151.2799000810126 L 1574.5826322267371 1151.2799000810126 C 1574.0767871811827 1151.2727461729328 1573.672517601358 1150.8627187879947 1573.672517601358 1150.3568231579357 C 1573.672517601358 1149.8509275278764 1574.0767871811827 1149.4409001429385 1574.5826322267371 1149.4337462348587 L 1563.5057091498143 1149.4337462348587 C 1563.471973519139 1149.4321632956135 1563.4529063189507 1149.4321632956135 1563.4191706882757 1149.4337462348587 C 1563.385434983593 1149.4321648736543 1563.36636793142 1149.4321648736543 1563.3326322267371 1149.4337462348587 Z  M 1563.3326322267371 1154.0491308502433 C 1564.0531175067372 1153.9815853552432 1564.226194429814 1155.8277392013972 1563.5057091498143 1155.895284696397 L 1572.7364783805833 1155.895284696397 C 1572.2306333350289 1155.8881307883173 1571.8263637552043 1155.4781034033792 1571.8263637552043 1154.9722077733202 C 1571.8263637552043 1154.4663121432611 1572.2306333350289 1154.056284758323 1572.7364783805833 1154.0491308502433 L 1563.5057091498143 1154.0491308502433 C 1563.471973519139 1154.0475479109982 1563.4529063189507 1154.0475479109982 1563.4191706882757 1154.0491308502433 C 1563.385434983593 1154.0475494890388 1563.36636793142 1154.0475494890388 1563.3326322267371 1154.0491308502433 Z " fill-rule="evenodd" fill="rgb(102,205,170)" stroke-width="3.8461538461538463" stroke="rgba(0,0,0,0)" stroke-linejoin="miter" stroke-linecap="butt"/></svg>