<?xml version="1.0" standalone="no"?><!-- Generator: Gravit.io --><svg xmlns="http://www.w3.org/2000/svg" xmlns:xlink="http://www.w3.org/1999/xlink" style="isolation:isolate" viewBox="1557.0441706882757 1340.0961921736466 24 24" width="24" height="24"><path d=" M 1568.5826322267371 1340.0961921736466 C 1567.8210937651988 1340.0961921736466 1566.955709149814 1340.430807558262 1566.448016842122 1341.3077306351852 C 1565.8941706882756 1342.230807558262 1565.726862995968 1343.407730635185 1566.1884014575064 1344.4231152505697 C 1566.1884014575064 1344.5154229428774 1565.9864783805833 1344.3365767890311 1565.9864783805833 1344.7981152505697 C 1565.8941706882756 1345.259653712108 1566.176862995968 1345.905807558262 1566.3614783805833 1346.1827306351852 C 1566.453786072891 1346.2750383274927 1566.6441706882756 1346.378884481339 1566.7364783805833 1346.4711921736466 C 1566.7364783805833 1346.4711921736466 1566.926862995968 1347.2904229428773 1567.573016842122 1348.028884481339 C 1567.6653245344296 1348.582730635185 1567.024939919045 1348.951961404416 1567.024939919045 1348.951961404416 C 1565.1787860728912 1349.2288844813388 1563.499939919045 1350.157730635185 1563.1307091498143 1351.1731152505697 L 1574.9576322267371 1351.1731152505697 C 1574.5884014575065 1350.157730635185 1572.9095553036602 1349.2288844813388 1571.0634014575064 1348.951961404416 C 1571.0634014575064 1348.951961404416 1570.2326322267372 1348.7673460198005 1570.601862995968 1348.028884481339 C 1571.0634014575064 1347.4750383274927 1571.3460937651987 1346.7423460198004 1571.4384014575064 1346.5577306351852 C 1571.4384014575064 1346.5577306351852 1572.1884014575064 1345.9981152505698 1572.1884014575064 1345.259653712108 C 1572.1884014575064 1344.4288844813389 1571.9864783805833 1344.4231152505697 1571.9864783805833 1344.4231152505697 C 1572.2634014575065 1343.5923460198005 1572.3557091498142 1340.4769614044158 1570.1403245344295 1340.8461921736466 C 1570.001862995968 1340.430807558262 1569.3441706882757 1340.0961921736466 1568.5826322267371 1340.0961921736466 Z  M 1577.8134014575064 1347.480807558262 C 1577.0486996113525 1347.480807558262 1576.4287860728912 1348.1007210044158 1576.4287860728912 1348.8654229428773 C 1576.4287860728912 1349.6301247890312 1577.0486996113525 1350.2500383274928 1577.8134014575064 1350.2500383274928 C 1578.076267919045 1350.2500383274928 1578.325206072891 1350.1753189428773 1578.5345553036602 1350.0481152505697 C 1578.6629756113525 1350.2026724813388 1578.7643553036603 1350.3599841736466 1578.851862995968 1350.5384998659542 C 1579.0500023805835 1350.9427032505696 1579.1366599190449 1351.4538063274927 1579.1691706882757 1352.0961921736466 L 1557.9672476113526 1352.0961921736466 C 1557.4134014575066 1352.0961921736466 1557.0441706882757 1352.4654229428775 1557.0441706882757 1353.0192690967235 L 1557.0441706882757 1354.8654229428773 L 1558.8903245344295 1357.634653712108 L 1561.024939919045 1357.634653712108 L 1560.649939919045 1355.4134998659542 C 1560.5576322267373 1355.1365767890313 1560.8345553036604 1354.8654229428773 1561.1114783805833 1354.8654229428773 L 1576.976862995968 1354.8654229428773 C 1577.253786072891 1354.8654229428773 1577.5307091498141 1355.1365767890313 1577.4384014575064 1355.4134998659542 L 1577.0634014575064 1357.634653712108 L 1579.198016842122 1357.634653712108 L 1581.0441706882757 1354.8654229428773 L 1581.0441706882757 1353.0192690967235 C 1581.0441706882757 1352.4654229428775 1580.6749399190448 1352.0961921736466 1580.1210937651988 1352.0961921736466 L 1580.0922476113526 1352.0961921736466 C 1580.054574995968 1351.3427500198004 1579.9362762267372 1350.6991641736465 1579.6595553036602 1350.134653712108 C 1579.5170968421219 1349.844037712108 1579.3299633036604 1349.5723558659543 1579.1114783805833 1349.326961404416 C 1579.160994072891 1349.1845131890311 1579.198016842122 1349.0247358659542 1579.198016842122 1348.8654229428773 C 1579.198016842122 1348.1007210044158 1578.5781033036603 1347.480807558262 1577.8134014575064 1347.480807558262 Z  M 1562.2076322267371 1355.7884998659542 C 1561.9307091498142 1355.7884998659542 1561.7460937651988 1356.0596537121082 1561.7460937651988 1356.3365767890311 L 1562.8710937651988 1364.0961921736466 L 1575.1307091498143 1364.0961921736466 L 1576.3422476113526 1356.3365767890311 C 1576.4345553036603 1356.0596537121082 1576.1576322267372 1355.7884998659542 1575.8807091498143 1355.7884998659542 L 1562.2076322267371 1355.7884998659542 Z " fill-rule="evenodd" fill="rgb(102,205,170)" stroke-width="3.8461538461538463" stroke="rgba(0,0,0,0)" stroke-linejoin="miter" stroke-linecap="butt"/></svg>