<?xml version="1.0" standalone="no"?><!-- Generator: Gravit.io --><svg xmlns="http://www.w3.org/2000/svg" xmlns:xlink="http://www.w3.org/1999/xlink" style="isolation:isolate" viewBox="1829.0441706882757 1237.4642743323743 20 18.26086956521749" width="20" height="18.26086956521749"><path d=" M 1832.0876489491452 1255.7251438975918 C 1831.8919967752322 1255.7251438975918 1831.7206924274062 1255.594709114983 1831.6685185143626 1255.406448245418 C 1831.6163446013193 1255.2181873758527 1831.6963446013192 1255.0181873758527 1831.863735905667 1254.917752593244 C 1832.793735905667 1254.3599265062874 1833.1654750361017 1253.5055786802004 1833.0176489491453 1252.2468830280266 L 1831.218083731754 1252.2468830280266 C 1830.01938807958 1252.2468830280266 1829.0441706882757 1251.2716656367222 1829.0441706882757 1250.0729699845483 L 1829.0441706882757 1239.6381873758526 C 1829.0441706882757 1238.4394917236787 1830.01938807958 1237.4642743323743 1831.218083731754 1237.4642743323743 L 1846.8702576447974 1237.4642743323743 C 1848.0689532969714 1237.4642743323743 1849.0441706882757 1238.4394917236787 1849.0441706882757 1239.6381873758526 L 1849.0441706882757 1250.0729699845483 C 1849.0441706882757 1251.2716656367222 1848.0689532969714 1252.2468830280266 1846.8702576447974 1252.2468830280266 L 1837.1676489491454 1252.2468830280266 C 1835.873735905667 1255.3794917236787 1833.2006924274062 1255.7251438975918 1832.0876489491452 1255.7251438975918 Z " fill="rgb(139,139,139)" stroke-width="2" stroke="rgba(0,0,0,0)" stroke-linejoin="miter" stroke-linecap="butt"/></svg>