<?xml version="1.0" standalone="no"?><!-- Generator: Gravit.io --><svg xmlns="http://www.w3.org/2000/svg" xmlns:xlink="http://www.w3.org/1999/xlink" style="isolation:isolate" viewBox="1558.0441706882757 1238.8988891113436 20 18.181818181818016" width="20" height="18.181818181818016"><path d=" M 1558.0441706882757 1257.0807072931616 L 1561.6805343246392 1257.0807072931616 L 1561.6805343246392 1246.1716163840708 L 1558.0441706882757 1246.1716163840708 L 1558.0441706882757 1257.0807072931616 Z  M 1578.0441706882757 1247.0807072931616 C 1578.0441706882757 1246.0761618386161 1577.2305343246392 1245.2625254749798 1576.2259888700937 1245.2625254749798 L 1570.4850797791846 1245.2625254749798 L 1571.3532615973666 1241.1079800204343 C 1571.3714434155484 1241.0170709295253 1571.3850797791847 1240.9216163840708 1571.3850797791847 1240.8216163840707 C 1571.3850797791847 1240.444343656798 1571.2305343246392 1240.1034345658888 1570.9850797791846 1239.8579800204343 L 1570.0168979610028 1238.8988891113436 L 1564.0305343246393 1244.8852527477072 C 1563.7032615973665 1245.2170709295253 1563.498716142821 1245.6716163840708 1563.498716142821 1246.1716163840708 L 1563.498716142821 1255.2625254749798 C 1563.498716142821 1256.2670709295253 1564.3123525064575 1257.0807072931616 1565.316897961003 1257.0807072931616 L 1573.498716142821 1257.0807072931616 C 1574.2532615973664 1257.0807072931616 1574.898716142821 1256.6216163840706 1575.1714434155483 1255.9716163840708 L 1577.9123525064574 1249.5625254749798 C 1577.9941706882755 1249.3534345658888 1578.0441706882757 1249.1307072931618 1578.0441706882757 1248.8988891113436 L 1578.0441706882757 1247.1579800204345 L 1578.0350797791848 1247.1488891113436 L 1578.0441706882757 1247.0807072931616 Z " fill-rule="evenodd" fill="rgb(139,139,139)" stroke-width="2.083333333333334" stroke="rgba(0,0,0,0)" stroke-linejoin="miter" stroke-linecap="butt"/></svg>